# xmcd
#
# Track frame offsets:
# 150
# 12053
# 27702
# 40719
# 50498
# 65888
# 73983
# 83160
# 96345
# 115011
# 122487
# 137383
# 167144
# 177419
# 186282
# 195257
# 204568
# 208896
# 216155
# 224956
# 230853
# 239789
# 248859
# 257824
# 269471
#
# Disc length: 3708 seconds
#
#
# Revision: 0
# Processed by: cddbd v1.5.2PL0 Copyright (c) Steve Scherf et al.
# Submitted via: FreeRIP 2.60 
#
DISCID=900e7a19
DTITLE=Various Artist - Královské reggae
DYEAR=1900
DGENRE=
TTITLE0=Kralovske reggae
TTITLE1=Nemoce
TTITLE2=Kdyby se v komnatach
TTITLE3=Je statisticky dokazano
TTITLE4=Neni to prijemne pomysleni
TTITLE5=Dej cihlu k cihla (Delani)
TTITLE6=Hlupaku najdu te
TTITLE7=Jestli to nebude laska
TTITLE8=Mame tu dalsi dobry den
TTITLE9=Urozenost lidskeho srdce
TTITLE10=Pisen Babety (Kdyz se nacancam)
TTITLE11=Dobro s laskou vitezi
TTITLE12=Kolovratek I
TTITLE13=Prestalo se slunce smat
TTITLE14=Kolovratek II
TTITLE15=Chtela bych jednou
TTITLE16=Kolovratek III
TTITLE17=Jedno zrnko popela
TTITLE18=Kolovratek IV
TTITLE19=Kterypak z mudrcu
TTITLE20=Kolovratek V
TTITLE21=Luna bleda
TTITLE22=Kolovratek VI
TTITLE23=At jsi kde jsi
TTITLE24=Kolovratek VII
EXTD=
EXTT0=
EXTT1=
EXTT2=
EXTT3=
EXTT4=
EXTT5=
EXTT6=
EXTT7=
EXTT8=
EXTT9=
EXTT10=
EXTT11=
EXTT12=
EXTT13=
EXTT14=
EXTT15=
EXTT16=
EXTT17=
EXTT18=
EXTT19=
EXTT20=
EXTT21=
EXTT22=
EXTT23=
EXTT24=
PLAYORDER=
